<?xml version="1.0" standalone="no"?>
<!DOCTYPE svg PUBLIC "-//W3C//DTD SVG 20010904//EN"
 "http://www.w3.org/TR/2001/REC-SVG-20010904/DTD/svg10.dtd">
<svg version="1.0" xmlns="http://www.w3.org/2000/svg"
 width="260.000000pt" height="260.000000pt" viewBox="0 0 260.000000 260.000000"
 preserveAspectRatio="xMidYMid meet">
<metadata>
Created by potrace 1.11, written by Peter Selinger 2001-2013
</metadata>
<g transform="translate(0.000000,260.000000) scale(0.100000,-0.100000)"
fill="#000000" stroke="none">
<path d="M1437 2464 c-1 -2 -14 -5 -27 -8 -153 -32 -280 -161 -315 -321 -4
-16 -9 -39 -12 -50 -6 -27 -5 -115 3 -161 8 -49 34 -114 45 -114 16 0 10 -18
-13 -42 -77 -80 -111 -131 -111 -167 0 -48 26 -88 72 -108 l36 -16 -65 -8
c-63 -7 -66 -6 -90 21 -59 66 -154 77 -239 29 -59 -33 -97 -127 -72 -174 3 -5
7 -19 8 -30 2 -10 10 -29 18 -41 13 -20 12 -24 -8 -37 -62 -42 -100 -97 -127
-187 -20 -66 -25 -207 -8 -227 6 -7 8 -13 4 -13 -13 0 27 -66 63 -103 35 -37
36 -41 37 -115 1 -42 5 -111 9 -152 8 -74 10 -116 5 -135 -11 -47 34 -121 66
-108 8 3 14 0 14 -7 0 -7 8 -10 20 -7 10 3 21 0 24 -7 2 -6 5 0 5 14 1 18 4
21 10 11 13 -20 70 -22 106 -4 26 13 65 50 106 101 5 7 8 16 4 21 -3 5 0 11 7
13 6 2 13 11 14 19 2 7 12 39 23 69 11 30 20 63 21 73 0 17 11 22 24 10 11
-11 79 -32 88 -27 4 3 8 1 8 -4 0 -5 11 -7 25 -4 46 8 51 -7 42 -115 -12 -129
-11 -177 2 -181 6 -2 11 -9 11 -16 0 -19 45 -39 69 -31 11 3 21 2 21 -3 0 -4
34 -7 76 -6 75 2 77 3 116 43 21 23 42 41 47 41 8 0 35 48 36 65 0 6 4 13 8
16 5 4 10 18 10 33 1 14 5 26 8 26 7 0 10 33 10 83 0 37 12 34 43 -13 24 -36
44 -47 79 -41 4 0 7 -3 7 -8 0 -11 57 1 90 20 37 21 90 81 90 103 0 7 9 25 20
39 11 14 20 30 20 36 0 6 4 11 9 11 5 0 13 15 17 32 4 18 9 40 12 48 9 34 9
284 0 318 -5 20 -14 55 -20 77 -13 54 -59 148 -79 165 -4 3 -9 15 -13 28 -4
12 -11 22 -15 22 -4 0 -16 8 -27 18 -26 22 -53 39 -84 53 -72 33 -71 32 -64
59 19 67 9 175 -34 357 -8 36 -7 45 10 62 19 21 19 21 -19 22 -21 1 -52 3 -69
5 -40 5 -127 -48 -122 -74 3 -13 14 -17 52 -17 65 0 85 -24 81 -98 -1 -29 -5
-61 -8 -72 -10 -30 -46 -48 -102 -51 -27 -2 -62 -5 -78 -7 -35 -5 -43 7 -23
38 11 17 26 25 44 25 51 0 69 42 33 74 -17 16 -25 16 -58 6 -21 -7 -51 -22
-68 -34 -29 -20 -65 -30 -63 -17 2 21 -7 31 -52 55 -27 15 -59 29 -71 31 -12
3 -24 6 -26 9 -9 8 52 34 95 40 24 3 48 8 53 12 13 8 -8 34 -27 34 -8 0 -14 5
-14 12 0 6 -3 9 -6 5 -4 -3 -13 0 -21 8 -8 8 -22 20 -32 27 -45 32 -71 138
-57 233 7 40 10 46 29 43 12 -2 21 -8 20 -13 0 -6 -4 -27 -7 -48 -8 -47 10
-114 38 -145 89 -101 220 -30 242 129 6 43 8 45 35 41 24 -3 29 0 35 23 10 41
-10 53 -111 60 -164 12 -180 14 -212 20 l-33 6 17 27 c41 66 115 123 183 139
66 17 141 19 190 8 19 -5 37 -9 40 -10 3 0 16 -7 30 -14 123 -67 142 -281 38
-420 -27 -36 -22 -42 34 -39 47 3 53 6 71 38 72 126 65 319 -16 434 -53 76
-160 117 -300 113 -32 0 -59 -2 -60 -3z m-9 -439 c-16 -72 -63 -103 -113 -77
l-30 16 30 6 c58 13 95 51 95 99 0 10 3 21 7 25 13 13 20 -28 11 -69z m-98 48
c0 -29 -12 -63 -21 -63 -5 0 -9 18 -9 40 0 29 4 40 15 40 8 0 15 -8 15 -17z
m-162 -454 c11 0 9 -4 -7 -10 -28 -11 -55 -4 -46 12 4 6 14 8 22 5 8 -3 22 -6
31 -7z m142 -76 c25 -32 13 -44 -38 -37 -45 6 -51 10 -45 35 4 16 8 17 14 7 6
-9 9 -4 9 15 0 24 2 26 19 17 11 -5 29 -22 41 -37z m375 -101 c1 -15 -3 -36
-9 -47 -7 -11 -9 -36 -6 -55 3 -19 0 -51 -7 -70 -14 -39 -17 -93 -6 -104 4 -3
8 -12 9 -19 1 -7 9 -43 18 -80 22 -94 22 -93 -24 -89 -37 4 -40 7 -56 54 -9
27 -24 54 -34 60 -17 11 -17 14 7 50 34 51 34 117 0 191 -14 31 -35 60 -46 66
-33 18 -25 28 19 25 45 -3 108 19 117 42 8 20 16 10 18 -24z m-473 -81 c15 -6
30 -23 36 -40 6 -17 9 -31 6 -31 -2 0 4 -8 14 -18 9 -10 24 -28 32 -40 8 -12
20 -22 27 -22 7 0 13 -7 13 -16 0 -9 13 -29 29 -44 16 -16 30 -33 33 -40 2 -7
22 -22 43 -35 95 -52 127 -172 72 -266 -26 -44 -136 -158 -154 -160 -4 0 -17
-3 -28 -5 -20 -5 -80 -5 -165 -2 -25 0 -61 -2 -80 -7 -19 -4 -44 -9 -55 -10
-11 -2 -22 -5 -25 -6 -12 -6 -120 -3 -120 3 0 4 -6 5 -12 3 -21 -8 -76 31
-105 74 -24 35 -36 42 -68 41 -12 -1 -71 67 -84 95 -20 43 -14 140 11 205 21
52 83 151 100 158 5 2 6 7 3 12 -2 4 6 8 20 8 13 0 48 15 77 33 29 19 56 35
60 35 5 1 11 3 16 4 4 1 10 2 15 1 4 0 7 7 8 17 0 11 2 12 6 4 4 -10 9 -9 24
4 10 9 16 21 13 25 -3 5 4 9 16 9 12 0 19 4 15 9 -3 5 3 11 12 13 30 7 169 -1
195 -11z m-382 -1116 c0 -2 -9 -3 -19 -2 -11 0 -18 5 -15 9 4 6 34 0 34 -7z"/>
<path d="M705 1107 c-38 -43 -57 -158 -32 -189 43 -55 106 -1 131 114 13 57
-27 104 -66 79 -12 -7 -17 -8 -13 -2 9 15 -7 13 -20 -2z"/>
<path d="M1112 1049 c-12 -5 -22 -16 -22 -24 0 -9 -5 -13 -10 -10 -12 7 -34
-48 -33 -80 1 -64 6 -76 38 -110 30 -30 41 -35 66 -31 17 2 40 14 51 26 20 21
50 84 44 91 -2 2 -6 21 -9 42 -9 67 -72 115 -125 96z"/>
<path d="M801 844 c-21 -17 -29 -33 -29 -53 1 -20 5 -28 14 -24 8 3 14 0 14
-7 0 -28 85 -74 99 -53 3 5 14 12 23 16 12 4 17 15 15 34 -5 42 -26 85 -37 78
-5 -3 -10 -2 -10 3 0 6 -13 15 -30 20 -26 9 -34 8 -59 -14z"/>
</g>
</svg>
